<?xml version="1.0" encoding="utf-8"?>
<!-- Svg Vector Icons : http://www.onlinewebfonts.com/icon -->
<!DOCTYPE svg PUBLIC "-//W3C//DTD SVG 1.1//EN" "http://www.w3.org/Graphics/SVG/1.1/DTD/svg11.dtd">
<svg version="1.1" xmlns="http://www.w3.org/2000/svg" xmlns:xlink="http://www.w3.org/1999/xlink" x="0px" y="0px" viewBox="0 0 1000 1000" enable-background="new 0 0 1000 1000" xml:space="preserve">
<metadata> Svg Vector Icons : http://www.onlinewebfonts.com/icon </metadata>
<g><g transform="translate(0.000000,511.000000) scale(0.100000,-0.100000)"><path d="M6204.8,4310c-628.1-88.8-1182.2-340.5-1681.3-759.2c-234.7-196.7-640.8-670.4-640.8-746.5c0-10.6,74-31.7,165-46.5c255.9-42.3,702.1-198.8,979.2-344.7l249.5-131.1l122.7,116.3c484.3,461,1171.6,611.2,1816.6,397.6c581.6-194.6,1019.4-661.9,1197-1281.6c67.7-232.6,67.7-700,0-945.3C8268.9,50.7,7920-374.4,7446.3-607c-116.3-57.1-258-114.2-317.2-129c-57.1-12.7-112.1-29.6-120.6-38.1c-6.3-6.3-23.3-139.6-36-294c-33.8-410.3-129-818.4-266.5-1152.6c-14.8-36-6.3-38.1,139.6-25.4c873.4,78.3,1598.8,425.1,2176.2,1040.5c418.7,448.3,704.2,1010.9,829,1643.2c65.5,334.2,65.5,875.5,0,1209.7c-137.5,689.4-431.4,1241.4-922.1,1734.2c-475.8,473.7-1029.9,769.8-1677.1,896.7C6955.6,4335.4,6484,4350.2,6204.8,4310z M7224.2,3946.2c224.2-44.4,486.4-131.1,499.1-165c10.6-25.4-184-697.9-209.4-721.2c-4.2-6.3-95.2,19-198.8,55c-105.7,33.8-281.3,74-393.4,88.8c-188.2,23.3-203,27.5-194.6,67.7c10.6,46.5,116.3,704.2,116.3,723.3C6843.5,4007.6,7029.6,3984.3,7224.2,3946.2z M5676.1,3432.3c95.2-184,173.4-340.5,173.4-344.7c0-6.3-61.3-40.2-135.4-74c-148-69.8-351.1-200.9-469.5-304.5c-40.2-35.9-76.1-61.3-80.4-57.1c-4.2,4.2-107.8,148-230.5,319.3l-224.2,310.9l88.8,69.8c148,120.5,291.9,213.6,490.6,317.2c105.7,55,194.6,99.4,200.9,99.4C5496.4,3770.7,5578.8,3618.4,5676.1,3432.3z M8994.3,2810.6c107.9-143.8,306.7-488.5,332-575.2c10.6-35.9-27.5-63.4-313-215.7c-177.6-95.2-332-173.4-342.6-173.4c-10.6,0-55,76.1-97.3,167.1c-42.3,90.9-137.5,243.2-207.3,338.4c-71.9,97.3-124.8,179.8-120.5,184c65.6,65.6,583.7,427.2,607,425.1C8869.5,2958.6,8933,2890.9,8994.3,2810.6z M9212.1,894.5c395.5-61.3,365.9-46.5,349-175.5C9523,399.6,9394-57.2,9345.4-57.2c-27.5,0-706.3,207.2-719,217.8c-2.1,4.2,19,67.7,46.5,143.8c59.2,167.1,116.3,429.3,116.3,543.5c0,99.4,12.7,114.2,84.6,101.5C8903.4,943.1,9055.6,917.8,9212.1,894.5z M8343-884.1l215.7-298.2l-46.5-50.8c-74-78.2-334.2-251.7-537.2-357.4l-186.1-97.3l-44.4,80.4c-25.4,44.4-107.9,198.8-186.1,344.7l-139.6,266.5l194.6,99.4c105.7,52.9,260.1,150.1,340.5,211.5c82.5,63.4,154.4,112.1,160.7,107.9C8120.9-581.6,8224.5-719.1,8343-884.1z"/><path d="M3047.4,2457.4c-750.8-74-1427.5-395.5-1968.9-936.9C-53,386.9-222.2-1336.7,670.3-2681.7c177.6-266.5,596.4-685.2,865-862.9c801.5-532.9,1736.3-697.9,2639.3-465.3c1218.1,313,2123.3,1273.1,2398.3,2544.2c38.1,179.8,46.5,281.3,46.5,647.2c0,490.7-29.6,678.9-169.2,1080.7C5953.2,1693.9,4540.5,2605.4,3047.4,2457.4z M4083.6,2049.2c253.8-63.4,666.2-230.5,666.2-268.6c0-8.5-67.7-173.4-150.2-365.9c-145.9-342.6-150.2-348.9-196.7-319.3c-84.6,55-361.6,160.7-528.7,200.9c-90.9,23.3-169.2,44.4-175.5,50.8c-4.2,4.2,36,175.5,90.9,380.7c80.4,306.7,105.7,372.2,133.2,363.8C3941.9,2085.2,4013.9,2066.1,4083.6,2049.2z M2662.5,1660.1c78.3-194.6,141.7-359.5,141.7-368c0-6.3-25.4-19-57.1-27.5c-133.2-31.7-378.6-143.8-518.1-234.7c-82.5-52.9-150.1-93.1-154.4-88.8c-23.3,27.5-370.1,649.3-370.1,664.1c0,21.1,224.2,162.8,380.7,241.1c84.6,44.4,393.4,165,425.1,169.2C2516.5,2015.4,2584.2,1856.8,2662.5,1660.1z M3730.5,989.7C4591.2,809.9,5193.9,65.5,5193.9-816.4c0-1266.8-1209.7-2150.8-2402.5-1755.3C2002.6-2309.5,1495.1-1556.6,1541.6-717c46.5,839.6,630.2,1524.8,1452.9,1708.8C3159.5,1027.7,3554.9,1027.7,3730.5,989.7z M5963.7,556.1c61.3-122.7,137.5-289.7,167.1-372.2l52.9-150.1L5826.3-110c-196.7-78.3-361.6-139.6-365.9-135.4c-4.2,4.2-23.3,61.3-44.4,124.8c-44.4,135.3-173.4,397.6-253.8,516c-44.4,65.6-50.8,86.7-27.5,99.4c14.8,8.5,165,97.3,334.1,196.7l306.7,177.6l36-44.4C5832.6,799.3,5900.3,678.8,5963.7,556.1z M1165.2,416.5L1486.6,277l-82.5-188.2c-44.4-103.6-105.7-274.9-133.2-382.8c-42.3-165-55-194.6-88.8-190.3c-95.2,16.9-674.6,179.8-689.4,194.6c-23.3,21.2,57.1,325.7,143.8,554.1C738,524.4,769.7,583.6,809.9,568.8C826.8,562.5,987.5,492.7,1165.2,416.5z M6071.6-1294.4l169.2-46.5l-6.3-93.1c-8.5-116.3-126.9-480.1-215.7-653.5c-48.6-95.2-74-126.9-97.3-118.4c-19,6.4-179.8,76.2-357.4,152.3L5238.3-1914l74,145.9c61.3,124.8,143.8,376.4,186.1,573.1l12.7,55l194.6-52.9C5813.6-1222.5,5978.5-1269,6071.6-1294.4z M1342.8-1577.8c38.1-105.7,116.3-268.6,173.4-363.8c57.1-97.3,97.3-181.9,88.8-190.3c-10.6-8.4-158.6-97.3-334.1-196.7l-317.2-181.9l-36,46.5c-97.3,129-355.3,685.2-355.3,765.6c0,19,133.2,84.6,344.7,169.2c188.2,76.1,349,137.5,355.3,139.6C1270.9-1389.5,1306.9-1474.1,1342.8-1577.8z M4861.9-2929.1l181.9-321.5l-88.8-59.2c-152.3-105.7-357.4-209.4-547.8-281.3c-103.6-38.1-188.2-65.6-192.4-59.2c-10.6,12.7-266.5,659.8-272.8,691.6c-4.2,16.9,55,50.8,160.7,88.8c171.3,63.4,406.1,184,497,255.9c27.5,23.3,59.2,33.8,65.6,25.4C4673.7-2597.1,4762.5-2751.5,4861.9-2929.1z M2457.3-2798c93.1-42.3,262.2-101.5,380.7-131.1l211.5-57.1l-97.3-365.9c-55-200.9-103.6-370.1-110-374.3c-35.9-36-767.7,215.7-858.6,296.1c-4.2,4.2,46.5,133.2,114.2,289.7c65.6,154.4,133.2,313,150.2,351.1c14.8,35.9,31.7,67.7,35.9,67.7C2288.1-2721.9,2366.4-2755.7,2457.3-2798z"/><path d="M2806.3,325.6c-31.7-21.1-25.4-71.9,21.1-188.2c27.5-63.4,25.4-69.8-23.3-103.6c-219.9-154.4-296.1-431.4-181.9-674.6c112.1-239,300.3-342.6,579.5-315.1l143.8,14.8l131.1-272.8c71.9-150.1,131.1-279.2,131.1-287.6c0-27.5-95.2-14.8-179.8,25.4c-46.5,21.1-122.7,78.3-169.2,126.9c-122.7,129-249.5,114.2-294-33.8c-33.8-112.1,137.5-313,321.5-374.3c107.9-38.1,277-44.4,380.7-14.8c67.7,21.2,69.8,19,122.7-84.6c59.2-118.4,101.5-145.9,152.3-97.3c31.7,31.7,29.6,44.4-14.8,150.1l-46.5,114.2l114.2,114.2c82.5,80.4,124.8,145.9,152.3,226.3c90.9,274.9-38.1,592.2-294,727.5c-67.7,33.8-122.7,44.4-249.6,42.3c-88.8-2.1-181.9-8.5-207.3-16.9c-38.1-12.7-57.1,14.8-158.6,234.7c-63.4,135.4-116.3,249.6-116.3,253.8c0,19,112.1,6.3,154.4-14.8c25.4-14.8,82.5-57.1,126.9-95.2c93.1-84.6,145.9-90.9,215.7-19c65.6,63.4,67.7,131.1,4.2,224.2c-71.9,107.9-245.3,188.2-403.9,186.1c-69.8,0-148-8.5-171.3-16.9c-36-14.8-50.8-2.1-95.2,80.4C2899.3,336.2,2859.2,359.5,2806.3,325.6z M3081.2-385c57.1-122.7,103.6-228.4,103.6-232.6c0-6.3-38.1-10.6-82.5-10.6c-145.9,0-283.4,171.3-243.2,300.3c14.8,52.9,88.8,165,105.7,165C2971.2-162.9,3024.1-262.3,3081.2-385z M3810.8-994c95.2-101.5,110-207.3,46.5-329.9c-27.5-52.9-65.6-99.4-82.5-101.5c-33.8-4.2-279.2,486.4-255.9,511.8c8.5,8.4,63.4,8.4,120.6,2.1C3724.1-920,3758-937,3810.8-994z"/><path d="M6845.6,2243.8c-10.6-27.5-25.4-80.4-33.8-116.3c-14.8-69.8-14.8-69.8-143.8-69.8c-249.6-2.1-423-139.6-492.8-393.4c-36-135.4-36-137.5,8.4-194.6c25.4-31.7,101.5-141.7,171.3-247.4c69.8-103.6,141.7-207.3,158.6-226.3c19-21.1,33.8-50.8,33.8-63.4c2.1-14.8,25.4-69.8,50.8-122.7l50.7-95.2l14.8,80.4c8.5,42.3,19,78.3,25.4,78.3c31.7,0,139.6-97.3,167.1-152.3c42.3-82.5,29.6-203-31.7-287.6l-44.4-61.3l44.4-131.1l44.4-129l63.4,36c141.7,82.5,253.8,304.5,255.9,501.2c2.1,222.1-107.9,391.2-340.5,520.3c-59.2,33.8-86.7,61.3-80.4,82.5c6.3,19,31.7,124.8,55,234.8c63.4,279.2,61.3,274.9,97.3,260.1c46.5-16.9,114.2-162.8,114.2-243.2c0-110,50.8-165,148-165c65.5,0,90.9,10.6,118.4,55c88.8,133.2-2.1,420.9-171.3,537.2c-50.8,36-99.4,63.4-110,63.4c-59.2,2.1-71.9,38.1-48.6,135.3c16.9,76.1,16.9,110-2.1,131.1C6930.2,2305.1,6866.8,2296.6,6845.6,2243.8z M6729.3,1753.1c-6.3-29.6-31.7-137.5-57.1-243.2c-23.3-105.7-50.8-192.5-61.3-192.5c-8.5,0-46.5,33.8-82.5,74c-69.8,80.4-84.6,169.2-44.4,272.8c23.3,63.4,137.5,139.6,209.4,139.6C6735.7,1803.9,6739.9,1795.4,6729.3,1753.1z"/></g></g>
</svg>